<?xml version="1.0" encoding="UTF-8"?>
<svg width="1200pt" height="1200pt" version="1.1" viewBox="0 0 1200 1200" xmlns="http://www.w3.org/2000/svg">
 <path d="m408.96 889.12 2.2031-0.29297v-528.73l-386.63-210.58v796.47l384.42-56.871zm379.87-602.64 361.06-53.344-361.06-196.62zm-367.67 910.21-421.16-229.24v-849.23l778.84-114.91 421.16 229.39v848.93l-778.84 115.06zm14.547-26.891 714.18-105.51-375.46-204.41-338.72 50.109v259.81zm0-284.64 328.58-48.492v-521.82l-328.58 48.492zm-24.539 278.32v-249.96l-361.06 53.344zm764.29-113v-796.47l-386.63 57.164v528.88zm-411.17-1020.3-714.18 105.51 375.46 204.41 338.72-50.109v-259.81z" fill="#1e3787"/>
</svg>
